<?xml version="1.0" encoding="UTF-8"?>
<svg version="1.1" xmlns="http://www.w3.org/2000/svg" width="500" height="500">
<path d="M0 0 C9.29657963 6.72190501 15.52020504 16.02802177 17.48046875 27.390625 C17.56217743 28.98574305 17.59839415 30.58370485 17.59399414 32.1809082 C17.59391861 33.10148514 17.59384308 34.02206207 17.59376526 34.97053528 C17.58860397 35.9509227 17.58344269 36.93131012 17.578125 37.94140625 C17.57600258 39.46232124 17.57600258 39.46232124 17.57383728 41.01396179 C17.56825203 44.24371321 17.5557022 47.47339462 17.54296875 50.703125 C17.53795185 52.89648337 17.53338927 55.08984283 17.52929688 57.28320312 C17.51828743 62.65236753 17.50156395 68.02149126 17.48046875 73.390625 C18.02646729 73.38618378 18.57246582 73.38174255 19.13500977 73.37716675 C24.84567636 73.33273298 30.55629339 73.30267575 36.26708984 73.28076172 C38.39503984 73.27073795 40.52297619 73.25711539 42.65087891 73.23974609 C45.71910993 73.21533808 48.78715795 73.20410539 51.85546875 73.1953125 C53.27001343 73.17982864 53.27001343 73.17982864 54.71313477 73.16403198 C66.80083381 73.16200384 77.61869546 76.93290468 86.59375 85.234375 C95.68136568 95.62022149 98.53516385 106.80358163 97.72314453 120.23828125 C96.49665876 131.1162476 90.45289646 140.27895117 82.23046875 147.140625 C72.65006588 154.21687535 62.86927102 155.55255494 51.26953125 155.48828125 C50.30139496 155.4868663 49.33325867 155.48545135 48.33578491 155.48399353 C45.25898076 155.47841865 42.18225072 155.46587077 39.10546875 155.453125 C37.01302189 155.44810675 34.92057388 155.44354441 32.828125 155.43945312 C27.71221125 155.42845745 22.59635254 155.41121015 17.48046875 155.390625 C17.48490997 155.93662354 17.4893512 156.48262207 17.493927 157.04516602 C17.53836077 162.75583261 17.568418 168.46644964 17.59033203 174.17724609 C17.6003558 176.30519609 17.61397836 178.43313244 17.63134766 180.56103516 C17.65575567 183.62926618 17.66698836 186.6973142 17.67578125 189.765625 C17.68610382 190.70865479 17.69642639 191.65168457 17.70706177 192.62329102 C17.70897297 204.0140575 14.56319963 214.38300375 7.09765625 223.20703125 C-2.69435471 232.78493119 -13.02230921 236.19777826 -26.48779297 236.05126953 C-38.30598947 235.47900002 -47.55850256 229.95738414 -55.51953125 221.390625 C-63.12909734 211.72441943 -64.68193018 201.91970007 -64.6171875 189.9609375 C-64.61577255 188.97060516 -64.6143576 187.98027283 -64.61289978 186.95993042 C-64.60732377 183.81179727 -64.59477567 180.66373648 -64.58203125 177.515625 C-64.57701315 175.37500103 -64.57245079 173.23437594 -64.56835938 171.09375 C-64.55736219 165.85935051 -64.540648 160.62499293 -64.51953125 155.390625 C-65.8355835 155.40109863 -67.15163574 155.41157227 -68.50756836 155.42236328 C-73.42209113 155.45875012 -78.33660214 155.48159317 -83.2512207 155.50048828 C-85.37233487 155.51050344 -87.49343538 155.52411946 -89.61450195 155.54150391 C-92.67532741 155.56595025 -95.73596922 155.57715325 -98.796875 155.5859375 C-100.20367775 155.60142136 -100.20367775 155.60142136 -101.63890076 155.61721802 C-114.27557349 155.61933844 -124.1804386 152.1353775 -133.59765625 143.546875 C-143.23727303 132.7316952 -145.41652924 121.39677267 -144.71484375 107.49462891 C-144.29275823 102.94771268 -142.78417086 99.30420533 -140.51953125 95.390625 C-140.10703125 94.62621094 -139.69453125 93.86179687 -139.26953125 93.07421875 C-133.92199596 84.09582854 -125.42726839 77.64418618 -115.51953125 74.390625 C-112.19711957 73.62688093 -109.13532061 73.26771649 -105.72924805 73.27709961 C-104.34838264 73.27721291 -104.34838264 73.27721291 -102.93962097 73.27732849 C-101.46903984 73.28507042 -101.46903984 73.28507042 -99.96875 73.29296875 C-98.95480667 73.2943837 -97.94086334 73.29579865 -96.89619446 73.29725647 C-93.66644304 73.30284172 -90.43676163 73.31539155 -87.20703125 73.328125 C-85.01367288 73.3331419 -82.82031342 73.33770448 -80.62695312 73.34179688 C-75.25778872 73.35280632 -69.88866499 73.3695298 -64.51953125 73.390625 C-64.529524 72.53737389 -64.529524 72.53737389 -64.53971863 71.66688538 C-64.60641334 65.7127959 -64.65147266 59.75881365 -64.68432617 53.80444336 C-64.69935402 51.5863005 -64.71978202 49.36818707 -64.74584961 47.15014648 C-64.78249749 43.95028392 -64.79931813 40.75081639 -64.8125 37.55078125 C-64.82798386 36.56916519 -64.84346771 35.58754913 -64.85942078 34.57618713 C-64.86208213 23.53233823 -61.19962739 13.6935387 -53.73828125 5.4140625 C-38.4606753 -8.79912009 -17.64703581 -11.27221512 0 0 Z " fill="#0B74BB" transform="translate(273.51953125,135.609375)"/>
<path d="M0 0 C9.29657963 6.72190501 15.52020504 16.02802177 17.48046875 27.390625 C17.56217743 28.98574305 17.59839415 30.58370485 17.59399414 32.1809082 C17.59391861 33.10148514 17.59384308 34.02206207 17.59376526 34.97053528 C17.58860397 35.9509227 17.58344269 36.93131012 17.578125 37.94140625 C17.57600258 39.46232124 17.57600258 39.46232124 17.57383728 41.01396179 C17.56825203 44.24371321 17.5557022 47.47339462 17.54296875 50.703125 C17.53795185 52.89648337 17.53338927 55.08984283 17.52929688 57.28320312 C17.51828743 62.65236753 17.50156395 68.02149126 17.48046875 73.390625 C18.02646729 73.38618378 18.57246582 73.38174255 19.13500977 73.37716675 C24.84567636 73.33273298 30.55629339 73.30267575 36.26708984 73.28076172 C38.39503984 73.27073795 40.52297619 73.25711539 42.65087891 73.23974609 C45.71910993 73.21533808 48.78715795 73.20410539 51.85546875 73.1953125 C53.27001343 73.17982864 53.27001343 73.17982864 54.71313477 73.16403198 C66.80083381 73.16200384 77.61869546 76.93290468 86.59375 85.234375 C95.68136568 95.62022149 98.53516385 106.80358163 97.72314453 120.23828125 C96.49665876 131.1162476 90.45289646 140.27895117 82.23046875 147.140625 C72.64992383 154.21698027 62.86991206 155.55283512 51.26953125 155.48828125 C50.41061279 155.48727417 49.55169434 155.48626709 48.66674805 155.48522949 C45.47964123 155.48002502 42.29255355 155.46606387 39.10546875 155.453125 C31.96921875 155.4325 24.83296875 155.411875 17.48046875 155.390625 C17.48046875 170.240625 17.48046875 185.090625 17.48046875 200.390625 C17.15046875 200.390625 16.82046875 200.390625 16.48046875 200.390625 C16.48046875 168.710625 16.48046875 137.030625 16.48046875 104.390625 C15.82046875 104.390625 15.16046875 104.390625 14.48046875 104.390625 C14.13048828 103.15699219 14.13048828 103.15699219 13.7734375 101.8984375 C10.38109177 91.51761983 5.02921484 85.01672098 -4.57421875 79.69921875 C-11.43084543 76.50734081 -17.01901859 75.23489807 -24.58081055 75.18530273 C-25.97135147 75.17045334 -25.97135147 75.17045334 -27.38998413 75.15530396 C-30.45788 75.12368564 -33.52579136 75.09893014 -36.59375 75.07421875 C-38.71938991 75.05364952 -40.84502572 75.03265305 -42.97065735 75.01124573 C-48.56837654 74.95602194 -54.16613266 74.90661397 -59.76391602 74.85839844 C-65.47480562 74.80818569 -71.18564151 74.75249844 -76.89648438 74.69726562 C-88.1041208 74.58968027 -99.31180383 74.48823609 -110.51953125 74.390625 C-110.51953125 74.060625 -110.51953125 73.730625 -110.51953125 73.390625 C-95.33953125 73.390625 -80.15953125 73.390625 -64.51953125 73.390625 C-64.63789066 58.32808195 -64.63789066 58.32808195 -64.78979492 43.26586914 C-64.79856655 41.360845 -64.80620888 39.45581519 -64.8125 37.55078125 C-64.8278479 36.5820105 -64.8431958 35.61323975 -64.85900879 34.6151123 C-64.86321618 23.55387933 -61.21314175 13.7085349 -53.73828125 5.4140625 C-38.4606753 -8.79912009 -17.64703581 -11.27221512 0 0 Z " fill="#0693B3" transform="translate(273.51953125,135.609375)"/>
<path d="M0 0 C6.61599866 -0.12781934 13.23167364 -0.21477405 19.84863281 -0.2746582 C22.0948476 -0.29964839 24.34098236 -0.33365235 26.58691406 -0.37719727 C53.9403149 -0.89387261 53.9403149 -0.89387261 65.5 9.0625 C66.2734375 9.71347656 67.046875 10.36445313 67.84375 11.03515625 C68.5553125 11.68355469 69.266875 12.33195313 70 13 C70.70640625 13.63679687 71.4128125 14.27359375 72.140625 14.9296875 C74.19710413 17.21946468 75.16019275 19.19526901 76.25 22.0625 C76.75273437 23.34833984 76.75273437 23.34833984 77.265625 24.66015625 C78 27 78 27 78 30 C78.66 30 79.32 30 80 30 C80 46.5 80 63 80 80 C72.9875 80.04125 65.975 80.0825 58.75 80.125 C56.56213867 80.14320801 54.37427734 80.16141602 52.12011719 80.18017578 C28.5879072 80.2939536 28.5879072 80.2939536 22 77 C22 76.34 22 75.68 22 75 C20.7315625 74.690625 20.7315625 74.690625 19.4375 74.375 C9.833864 70.5335456 5.88088527 62.58633488 1.89453125 53.47265625 C0.41660752 49.38739108 -0.12545952 45.54180545 -0.11352539 41.2097168 C-0.11344986 40.28913986 -0.11337433 39.36856293 -0.11329651 38.42008972 C-0.10813522 37.4397023 -0.10297394 36.45931488 -0.09765625 35.44921875 C-0.0962413 34.43527542 -0.09482635 33.42133209 -0.09336853 32.37666321 C-0.08778328 29.14691179 -0.07523345 25.91723038 -0.0625 22.6875 C-0.0574831 20.49414163 -0.05292052 18.30078217 -0.04882812 16.10742188 C-0.03781868 10.73825747 -0.0210952 5.36913374 0 0 Z " fill="#014181" transform="translate(210,210)"/>
<path d="M0 0 C-1.16254658 3.48763975 -1.97300062 4.06608373 -5 6 C-6.2684375 6.37125 -6.2684375 6.37125 -7.5625 6.75 C-11.24806262 8.64003211 -11.65004172 11.16327646 -13 15 C-13.66 15 -14.32 15 -15 15 C-20.40548307 27.33152371 -19.40191914 42.16671032 -19.625 55.375 C-19.810625 65.089375 -19.810625 65.089375 -20 75 C-5.48 75 9.04 75 24 75 C24 75.33 24 75.66 24 76 C-6.69 76 -37.38 76 -69 76 C-69 75.67 -69 75.34 -69 75 C-53.82 75 -38.64 75 -23 75 C-23.11835941 59.93745695 -23.11835941 59.93745695 -23.27026367 44.87524414 C-23.2790353 42.97022 -23.28667763 41.06519019 -23.29296875 39.16015625 C-23.30831665 38.1913855 -23.32366455 37.22261475 -23.33947754 36.2244873 C-23.34366869 25.20596175 -19.7472913 14.8996816 -11.9375 6.8828125 C-4.16934647 0 -4.16934647 0 0 0 Z " fill="#5CB0C5" transform="translate(232,134)"/>
<path d="M0 0 C0.99 0.33 1.98 0.66 3 1 C-5.4207586 9.66842797 -13.67094955 15.60116609 -26.23431396 16.08627319 C-28.8937524 16.11542783 -31.55138444 16.11245615 -34.2109375 16.09765625 C-35.06985596 16.09664917 -35.92877441 16.09564209 -36.8137207 16.09460449 C-40.00082752 16.08940002 -43.1879152 16.07543887 -46.375 16.0625 C-53.51125 16.041875 -60.6475 16.02125 -68 16 C-68 30.85 -68 45.7 -68 61 C-68.33 61 -68.66 61 -69 61 C-69 45.16 -69 29.32 -69 13 C-47.3125 12.6875 -47.3125 12.6875 -40.55200195 12.61206055 C-30.33692284 12.44940345 -20.82657376 12.06850796 -11 9 C-11 8.34 -11 7.68 -11 7 C-9.68 7 -8.36 7 -7 7 C-7 6.34 -7 5.68 -7 5 C-5.68 5 -4.36 5 -3 5 C-3 4.01 -3 3.02 -3 2 C-2.01 2 -1.02 2 0 2 C0 1.34 0 0.68 0 0 Z " fill="#6BBCCC" transform="translate(359,275)"/>
<path d="M0 0 C6.34685469 1.12257294 11.88612361 6.19512638 15.75 11.1875 C16.53974135 12.43402555 17.28630256 13.7084299 18 15 C18.46535156 15.82886719 18.93070312 16.65773437 19.41015625 17.51171875 C23.72402185 26.31969502 23.50956489 34.44282746 23 44 C22.67 43.34 22.34 42.68 22 42 C21.34 42 20.68 42 20 42 C19.95101563 40.90300781 19.90203125 39.80601562 19.8515625 38.67578125 C19.77649409 37.22133075 19.70094803 35.76690484 19.625 34.3125 C19.5940625 33.59126953 19.563125 32.87003906 19.53125 32.12695312 C19.30664413 28.02789606 18.82259091 24.75631541 17 21 C15.68 21 14.36 21 13 21 C13 20.01 13 19.02 13 18 C12.54284064 16.42443294 12.03895471 14.86199478 11.5 13.3125 C11.2215625 12.50425781 10.943125 11.69601563 10.65625 10.86328125 C10.4396875 10.24839844 10.223125 9.63351563 10 9 C9.34 9 8.68 9 8 9 C6.5625 7.5390625 6.5625 7.5390625 5 5.625 C3.38135964 3.65835196 1.80325804 1.80325804 0 0 Z " fill="#4EACBB" transform="translate(348,214)"/>
<path d="M0 0 C7.61270145 5.50437451 13.96865625 13.17487155 16.48046875 22.390625 C16.078125 24.65625 16.078125 24.65625 15.48046875 26.390625 C15.48046875 25.400625 15.48046875 24.410625 15.48046875 23.390625 C14.49046875 23.060625 13.50046875 22.730625 12.48046875 22.390625 C10.59466938 19.17778162 9.48046875 17.14428917 9.48046875 13.390625 C8.16046875 13.060625 6.84046875 12.730625 5.48046875 12.390625 C5.58359375 11.648125 5.68671875 10.905625 5.79296875 10.140625 C5.74601377 7.23123246 5.74601377 7.23123246 3.41796875 5.265625 C1.12183006 3.80000456 -0.78035035 2.81866503 -3.26953125 1.828125 C-4.34203125 1.35375 -5.41453125 0.879375 -6.51953125 0.390625 C-6.84953125 -0.599375 -7.17953125 -1.589375 -7.51953125 -2.609375 C-16.96719409 -6.27275447 -28.67810251 -5.20908708 -38.51953125 -3.609375 C-29.51768761 -12.61121864 -8.85070511 -5.65347365 0 0 Z " fill="#83CBD4" transform="translate(273.51953125,135.609375)"/>
<path d="M0 0 C4.125 0.020625 8.25 0.04125 12.5 0.0625 C12.5 15.2425 12.5 30.4225 12.5 46.0625 C12.17 46.0625 11.84 46.0625 11.5 46.0625 C10.36861635 36.6479084 10.38438318 27.3424854 10.4375 17.875 C10.458125 12.656875 10.47875 7.43875 10.5 2.0625 C-0.06 2.0625 -10.62 2.0625 -21.5 2.0625 C-21.5 1.7325 -21.5 1.4025 -21.5 1.0625 C-14.3194814 -0.06612112 -7.25674759 -0.05143079 0 0 Z " fill="#176BAA" transform="translate(197.5,209.9375)"/>
<path d="M0 0 C1.98 0 3.96 0 6 0 C6 0.66 6 1.32 6 2 C23.16 2.33 40.32 2.66 58 3 C59.68390514 7.20976285 60.2498965 8.62875712 60.13525391 12.7902832 C60.11508209 13.71086014 60.09491028 14.63143707 60.0741272 15.57991028 C60.02583267 17.05049141 60.02583267 17.05049141 59.9765625 18.55078125 C59.93902359 20.07169624 59.93902359 20.07169624 59.90072632 21.62333679 C59.81872862 24.85340816 59.72206009 28.08284959 59.625 31.3125 C59.56673982 33.50583386 59.50943699 35.69919338 59.453125 37.89257812 C59.31318004 43.26206563 59.1611963 48.63111073 59 54 C58.67 54 58.34 54 58 54 C57.67 37.5 57.34 21 57 4 C51.58207031 4.05220703 51.58207031 4.05220703 46.0546875 4.10546875 C42.54981273 4.12887651 39.04494672 4.14708621 35.54003906 4.16479492 C33.10738211 4.17986534 30.67475226 4.20032523 28.2421875 4.22631836 C24.74211939 4.2627774 21.2424111 4.2797442 17.7421875 4.29296875 C16.11529495 4.31619453 16.11529495 4.31619453 14.45553589 4.33988953 C8.78646282 4.34114816 4.79692605 4.13645165 0 1 C0 0.67 0 0.34 0 0 Z " fill="#126CA8" transform="translate(153,285)"/>
<path d="M0 0 C0 0.66 0 1.32 0 2 C9.24 2 18.48 2 28 2 C22.15117608 6.38661794 17.76106386 6.20663716 10.6875 6.25 C9.44323242 6.2809375 9.44323242 6.2809375 8.17382812 6.3125 C2.66846811 6.34726155 -1.09362005 5.51609228 -6 3 C-2.25 0 -2.25 0 0 0 Z " fill="#68A4C4" transform="translate(239,365)"/>
<path d="M0 0 C0.33 0 0.66 0 1 0 C1.0760544 6.4777881 1.12860154 12.95546108 1.16479492 19.43359375 C1.17988291 21.63741356 1.20035576 23.84120335 1.22631836 26.04492188 C1.26270058 29.21231497 1.27972632 32.37931111 1.29296875 35.546875 C1.30845261 36.53242371 1.32393646 37.51797241 1.33988953 38.53338623 C1.34011612 39.4540387 1.34034271 40.37469116 1.34057617 41.32324219 C1.34723801 42.1315448 1.35389984 42.93984741 1.36076355 43.77264404 C0.91560702 46.52104268 -0.19851894 47.91954767 -2 50 C-1.88258616 43.20055159 -1.75775166 36.40126887 -1.62768555 29.60205078 C-1.58429624 27.28762931 -1.54262416 24.973175 -1.50268555 22.65869141 C-1.44507968 19.33746427 -1.38135749 16.01640308 -1.31640625 12.6953125 C-1.29969376 11.65569366 -1.28298126 10.61607483 -1.26576233 9.54495239 C-1.24581711 8.58410736 -1.22587189 7.62326233 -1.20532227 6.63330078 C-1.18200584 5.36089035 -1.18200584 5.36089035 -1.15821838 4.06277466 C-1 2 -1 2 0 0 Z " fill="#1F70A5" transform="translate(289,290)"/>
<path d="M0 0 C0.33 0 0.66 0 1 0 C1 14.85 1 29.7 1 45 C1.66 45 2.32 45 3 45 C3.33 47.64 3.66 50.28 4 53 C4.66 53 5.32 53 6 53 C6.66 55.64 7.32 58.28 8 61 C3.15883058 57.02332512 0.46153419 51.51719905 -0.34875488 45.34225464 C-0.45962073 42.42688739 -0.45063377 39.53791529 -0.390625 36.62109375 C-0.38496521 35.56841812 -0.37930542 34.51574249 -0.37347412 33.4311676 C-0.35124884 30.09946426 -0.30107768 26.7688732 -0.25 23.4375 C-0.22991714 21.16603126 -0.21166951 18.8945455 -0.1953125 16.62304688 C-0.15142971 11.08165768 -0.08465777 5.54090834 0 0 Z " fill="#31729E" transform="translate(210,294)"/>
<path d="M0 0 C-1.16254658 3.48763975 -1.97300062 4.06608373 -5 6 C-5.845625 6.2475 -6.69125 6.495 -7.5625 6.75 C-11.24806262 8.64003211 -11.65004172 11.16327646 -13 15 C-13.66 15 -14.32 15 -15 15 C-15.99 17.475 -15.99 17.475 -17 20 C-17.66 20 -18.32 20 -19 20 C-19 21.65 -19 23.3 -19 25 C-19.66 25 -20.32 25 -21 25 C-21.33 25.99 -21.66 26.98 -22 28 C-21.37702632 18.24007894 -15.84686925 10.69572424 -9 4 C-6.05818271 1.56562905 -3.94971251 0 0 0 Z " fill="#69B8C4" transform="translate(232,134)"/>
<path d="M0 0 C0.33 0 0.66 0 1 0 C1.61444328 8.06149589 -2.82450476 16.04612958 -7.80078125 22.2421875 C-9.4375 23.875 -9.4375 23.875 -12 26 C-12.66 25.67 -13.32 25.34 -14 25 C-13.34 24.34 -12.68 23.68 -12 23 C-11.896875 22.01 -11.79375 21.02 -11.6875 20 C-11.460625 19.01 -11.23375 18.02 -11 17 C-9.34795544 16.29788106 -7.68076231 15.63028587 -6 15 C-5.10613836 12.45224694 -5.10613836 12.45224694 -5 10 C-4.34 10 -3.68 10 -3 10 C-3 8.02 -3 6.04 -3 4 C-2.34 4 -1.68 4 -1 4 C-0.67 2.68 -0.34 1.36 0 0 Z " fill="#63A2C5" transform="translate(289,336)"/>
<path d="M0 0 C4.455 0.99 4.455 0.99 9 2 C9 2.66 9 3.32 9 4 C12.54911827 5.60152781 15.36364951 6.26099726 19.24926758 6.31884766 C20.78028862 6.34865219 20.78028862 6.34865219 22.34223938 6.37905884 C23.4319957 6.39061005 24.52175201 6.40216125 25.64453125 6.4140625 C26.7694548 6.43342865 27.89437836 6.4527948 29.0533905 6.4727478 C32.63968366 6.5324371 36.22600909 6.57888694 39.8125 6.625 C42.24675864 6.66318953 44.68100392 6.70224183 47.11523438 6.7421875 C53.07670405 6.83812998 59.03825453 6.92320875 65 7 C65 7.33 65 7.66 65 8 C57.81440836 8.15322745 50.62924412 8.25766369 43.44238281 8.32958984 C41.00211849 8.35960103 38.56196056 8.40042372 36.12207031 8.45263672 C9.35963674 9.01064331 9.35963674 9.01064331 1 2 C0.67 1.34 0.34 0.68 0 0 Z " fill="#3179A5" transform="translate(145,282)"/>
<path d="M0 0 C1.27286865 0.15847412 2.5457373 0.31694824 3.85717773 0.48022461 C9.00174371 1.04994656 14.11294189 1.21972962 19.28515625 1.31640625 C20.69769936 1.3475779 20.69769936 1.3475779 22.13877869 1.37937927 C25.11328645 1.44416778 28.0878738 1.50342701 31.0625 1.5625 C33.09310681 1.60575265 35.12370591 1.64936896 37.15429688 1.69335938 C42.10278541 1.79977543 47.05135306 1.90123666 52 2 C51.67 2.66 51.34 3.32 51 4 C44.80696911 4.0247204 38.61396695 4.04286973 32.42089844 4.05493164 C30.31412251 4.05996013 28.20735008 4.06678376 26.10058594 4.07543945 C23.07225686 4.08756989 20.04397394 4.09324317 17.015625 4.09765625 C15.60292328 4.10539818 15.60292328 4.10539818 14.16168213 4.11329651 C13.28107117 4.11337204 12.40046021 4.11344757 11.49316406 4.11352539 C10.72039124 4.115746 9.94761841 4.11796661 9.15142822 4.12025452 C6.98275023 3.99903582 5.08363076 3.59739699 3 3 C3 2.34 3 1.68 3 1 C2.01 0.67 1.02 0.34 0 0 Z " fill="#0B65A7" transform="translate(237,288)"/>
<path d="M0 0 C6.72600022 -0.07620013 13.45188868 -0.12866292 20.17822266 -0.16479492 C22.46537435 -0.17986116 24.75249725 -0.20031797 27.03955078 -0.22631836 C30.33112707 -0.26279606 33.62232062 -0.27974834 36.9140625 -0.29296875 C37.93303619 -0.30845261 38.95200989 -0.32393646 40.00186157 -0.33988953 C45.45309875 -0.34117548 49.26505889 -0.0408844 54 3 C51.32635424 4.02832529 50.21336379 4.08080516 47.48974609 3.04931641 C42.87951578 1.66308653 38.57844764 1.64533037 33.7890625 1.5859375 C32.82092621 1.56657135 31.85278992 1.5472052 30.85531616 1.5272522 C27.7786323 1.4677167 24.70191049 1.4211753 21.625 1.375 C19.53253623 1.33679627 17.44008778 1.29774315 15.34765625 1.2578125 C10.23189604 1.16203655 5.11606224 1.07790958 0 1 C0 0.67 0 0.34 0 0 Z " fill="#2F8F9D" transform="translate(294,210)"/>
<path d="M0 0 C6.63818954 1.17410155 12.18102758 6.52260759 16.0625 11.8125 C18 15 18 15 18 17 C17.01 17.33 16.02 17.66 15 18 C13.19933758 15.0534615 11.49836105 12.11198065 10 9 C9.34 9 8.68 9 8 9 C6.5625 7.5390625 6.5625 7.5390625 5 5.625 C3.38135964 3.65835196 1.80325804 1.80325804 0 0 Z " fill="#64B3C1" transform="translate(348,214)"/>
<path d="M0 0 C0.99 0.33 1.98 0.66 3 1 C-2.50832986 6.67033956 -7.10401184 11.2628826 -15 13 C-15 12.01 -15 11.02 -15 10 C-13.68 9.67 -12.36 9.34 -11 9 C-11 8.34 -11 7.68 -11 7 C-9.68 7 -8.36 7 -7 7 C-7 6.34 -7 5.68 -7 5 C-5.68 5 -4.36 5 -3 5 C-3 4.01 -3 3.02 -3 2 C-2.01 2 -1.02 2 0 2 C0 1.34 0 0.68 0 0 Z " fill="#4FA9BB" transform="translate(359,275)"/>
<path d="M0 0 C0.72445312 -0.01224609 1.44890625 -0.02449219 2.1953125 -0.03710938 C6.00700298 -0.04765833 7.7536304 0.0232536 11 2.1875 C6.54236752 2.55088912 2.08383125 2.90165381 -2.375 3.25 C-3.64601562 3.35376953 -4.91703125 3.45753906 -6.2265625 3.56445312 C-7.43828125 3.65791016 -8.65 3.75136719 -9.8984375 3.84765625 C-11.57945557 3.98119507 -11.57945557 3.98119507 -13.29443359 4.11743164 C-16 4.1875 -16 4.1875 -18 3.1875 C-16.906875 2.878125 -15.81375 2.56875 -14.6875 2.25 C-9.5602961 0.77267006 -5.33145493 0.00474329 0 0 Z " fill="#3196AB" transform="translate(250,129.8125)"/>
<path d="M0 0 C-0.86370152 4.66398819 -3.40585011 8.10877516 -6 12 C-6.99 12 -7.98 12 -9 12 C-9 12.66 -9 13.32 -9 14 C-9.66 14 -10.32 14 -11 14 C-9.93545026 9.26866783 -5.69343351 0 0 0 Z " fill="#66A0C3" transform="translate(144,219)"/>
<path d="M0 0 C3.96 1.98 3.96 1.98 8 4 C8 4.66 8 5.32 8 6 C8.763125 6.268125 9.52625 6.53625 10.3125 6.8125 C12.87380884 7.94424112 14.19692938 8.91223401 16 11 C13 12 13 12 10.8125 11 C6.98654044 8.27931764 3.27559767 5.37313408 0 2 C0 1.34 0 0.68 0 0 Z " fill="#76ACCB" transform="translate(218,355)"/>
<path d="M0 0 C6.46568686 0.33443208 9.44922643 1.33545709 14 6 C14 6.66 14 7.32 14 8 C14.66 8 15.32 8 16 8 C15.67 9.32 15.34 10.64 15 12 C14.41992188 11.45730469 13.83984375 10.91460937 13.2421875 10.35546875 C9.03272029 6.50026363 5.30205308 3.17520126 0 1 C0 0.67 0 0.34 0 0 Z " fill="#1082AD" transform="translate(266,213)"/>
<path d="M0 0 C0.33 0.99 0.66 1.98 1 3 C1.66 3 2.32 3 3 3 C3.33 5.64 3.66 8.28 4 11 C4.66 11 5.32 11 6 11 C6.66 13.64 7.32 16.28 8 19 C3.73989001 15.50062394 1.70524283 11.1423729 0 6 C-0.25 2.4375 -0.25 2.4375 0 0 Z " fill="#6DA5C5" transform="translate(210,336)"/>
<path d="M0 0 C0.66 0 1.32 0 2 0 C2 0.66 2 1.32 2 2 C3.11375 2.103125 4.2275 2.20625 5.375 2.3125 C7.169375 2.6528125 7.169375 2.6528125 9 3 C11 6 11 6 11 9 C10.34 9 9.68 9 9 9 C9 8.34 9 7.68 9 7 C8.071875 6.773125 7.14375 6.54625 6.1875 6.3125 C2.49280817 4.7911563 1.67517239 3.53647504 0 0 Z " fill="#126FAE" transform="translate(217,352)"/>
<path d="M0 0 C-1.16254658 3.48763975 -1.97300062 4.06608373 -5 6 C-6.66666667 6.66666667 -8.33333333 7.33333333 -10 8 C-11.36365283 8.95824253 -12.70794169 9.94721175 -14 11 C-12.53185858 7.41297339 -10.61565711 5.59626852 -7.5625 3.25 C-6.78003906 2.63640625 -5.99757812 2.0228125 -5.19140625 1.390625 C-3 0 -3 0 0 0 Z " fill="#7CC1CD" transform="translate(232,134)"/>
<path d="M0 0 C7.36274735 0 10.95999882 3.98285597 16 9 C15.67 9.66 15.34 10.32 15 11 C14.57589844 10.60167969 14.15179688 10.20335937 13.71484375 9.79296875 C10.67405214 7.04623172 7.95558647 4.78064842 4.125 3.25 C1 2 1 2 0 0 Z " fill="#7FC6CE" transform="translate(266,134)"/>
<path d="M0 0 C4.455 0.99 4.455 0.99 9 2 C9 2.66 9 3.32 9 4 C11.64 4.99 14.28 5.98 17 7 C12.16723945 8.20819014 11.11759609 7.42656946 6.8125 5.1875 C5.21341797 4.37345703 5.21341797 4.37345703 3.58203125 3.54296875 C1 2 1 2 0 0 Z " fill="#90C1DB" transform="translate(145,282)"/>
<path d="M0 0 C0.33 0 0.66 0 1 0 C1.34833144 4.87664009 0.41685712 7.77050005 -2 12 C-2.33 12 -2.66 12 -3 12 C-3 9.36 -3 6.72 -3 4 C-2.34 4 -1.68 4 -1 4 C-0.67 2.68 -0.34 1.36 0 0 Z " fill="#6CA5CB" transform="translate(289,336)"/>
<path d="M0 0 C2.32240046 2.85021875 3.93906527 5.46355091 5 9 C4.625 11.3125 4.625 11.3125 4 13 C4 12.01 4 11.02 4 10 C3.01 9.67 2.02 9.34 1 9 C-0.4783226 6.04335481 -0.06032783 3.25770263 0 0 Z " fill="#7BC3D0" transform="translate(285,149)"/>
<path d="M0 0 C1.4540625 0.0309375 1.4540625 0.0309375 2.9375 0.0625 C1.8125 2 1.8125 2 -0.0625 4.0625 C-3.25 4.8125 -3.25 4.8125 -6.0625 5.0625 C-3.64893617 0.07446809 -3.64893617 0.07446809 0 0 Z " fill="#67A2C4" transform="translate(272.0625,361.9375)"/>
<path d="M0 0 C1.00109515 3.31070838 1.10356134 6.30084769 1.0625 9.75 C1.05347656 10.73484375 1.04445312 11.7196875 1.03515625 12.734375 C1.02355469 13.48203125 1.01195312 14.2296875 1 15 C-0.48046875 13.74609375 -0.48046875 13.74609375 -2 12 C-2.36302306 7.42590939 -2.62404613 3.93606919 0 0 Z " fill="#66A6CD" transform="translate(132,233)"/>
<path d="M0 0 C1.98 0 3.96 0 6 0 C6 0.66 6 1.32 6 2 C8.97 2.33 11.94 2.66 15 3 C15 3.33 15 3.66 15 4 C9.158256 4.35050464 5.1468192 4.16727335 0 1 C0 0.67 0 0.34 0 0 Z " fill="#1C6EA5" transform="translate(153,285)"/>
<path d="M0 0 C2.64430181 2.39246354 4.46036426 4.77409655 6 8 C6.1875 11.8125 6.1875 11.8125 6 15 C4.19969878 12.29954818 3.06622934 9.93322119 1.875 6.9375 C1.52179688 6.05964844 1.16859375 5.18179688 0.8046875 4.27734375 C0 2 0 2 0 0 Z " fill="#0C81AB" transform="translate(283,225)"/>
<path d="M0 0 C4.87664009 -0.34833144 7.77050005 0.58314288 12 3 C8.18029984 4.46911544 5.69358471 3.52561108 2 2 C1.34 1.34 0.68 0.68 0 0 Z " fill="#79C0CA" transform="translate(336,210)"/>
<path d="M0 0 C1.32 0 2.64 0 4 0 C4 0.66 4 1.32 4 2 C2.36739286 3.37482707 0.69774938 4.70647667 -1 6 C-1.66 6.66 -2.32 7.32 -3 8 C-2.25 2.25 -2.25 2.25 0 0 Z " fill="#168BA7" transform="translate(223,140)"/>
<path d="M0 0 C0.33 0 0.66 0 1 0 C1.33730842 1.43657245 1.66969591 2.87430093 2 4.3125 C2.185625 5.11300781 2.37125 5.91351563 2.5625 6.73828125 C3 9 3 9 3 12 C2.01 11.67 1.02 11.34 0 11 C0 7.37 0 3.74 0 0 Z " fill="#0B66AE" transform="translate(210,256)"/>
<path d="M0 0 C0 0.99 0 1.98 0 3 C-1.26839526 3.50615298 -2.53983102 4.00469099 -3.8125 4.5 C-4.87404297 4.91765625 -4.87404297 4.91765625 -5.95703125 5.34375 C-8 6 -8 6 -11 6 C-3.8 0 -3.8 0 0 0 Z " fill="#88BAD5" transform="translate(155,212)"/>
<path d="M0 0 C0.66 0 1.32 0 2 0 C2.3367697 4.93928888 2.16130459 5.78492722 -1 10 C-0.67 6.7 -0.34 3.4 0 0 Z " fill="#67B7C4" transform="translate(368,256)"/>
<path d="M0 0 C0.33 0.99 0.66 1.98 1 3 C1.66 3 2.32 3 3 3 C3 5.64 3 8.28 3 11 C0.2441427 6.86621405 -0.10756445 4.94796454 0 0 Z " fill="#85B5D5" transform="translate(210,336)"/>
<path d="M0 0 C1.32 0.33 2.64 0.66 4 1 C4 2.65 4 4.3 4 6 C2.68 5.34 1.36 4.68 0 4 C0 2.68 0 1.36 0 0 Z " fill="#3B85B0" transform="translate(134,267)"/>
<path d="M0 0 C1.32 0.33 2.64 0.66 4 1 C3.67 1.99 3.34 2.98 3 4 C1.35 4.33 -0.3 4.66 -2 5 C-1.34 4.67 -0.68 4.34 0 4 C0 2.68 0 1.36 0 0 Z " fill="#0F6EB0" transform="translate(233,359)"/>
<path d="M0 0 C0.99 0 1.98 0 3 0 C4.0625 1.8125 4.0625 1.8125 5 4 C4.67 4.99 4.34 5.98 4 7 C2 5.1875 2 5.1875 0 3 C0 2.01 0 1.02 0 0 Z " fill="#1C6EA8" transform="translate(139,273)"/>
<path d="M0 0 C0.6875 1.6875 0.6875 1.6875 1 4 C-0.4375 6.75 -0.4375 6.75 -2 9 C-3.04449911 5.86650268 -2.93423645 5.01031744 -2 2 C-1.34 2 -0.68 2 0 2 C0 1.34 0 0.68 0 0 Z " fill="#1B6D9F" transform="translate(135,231)"/>
</svg>
